<svg width="64" height="69" viewBox="0 0 64 69" fill="none" xmlns="http://www.w3.org/2000/svg">
<path d="M36.7378 4.11648C34.2593 7.30751 32.7804 11.3206 32.7804 15.6818C32.7804 26.0748 41.1669 34.5 51.5121 34.5C54.2984 34.5 56.9405 33.884 59.3169 32.7879V51.75L29.6585 69L0 51.75V17.25L29.6585 0L36.7378 4.11648ZM6.24389 48.1328L29.6585 61.7534V34.5L6.24389 20.8795V48.1328ZM50.0426 4.13793C50.5939 2.80234 52.4309 2.80231 52.9816 4.13793L53.7711 6.05525C55.1198 9.32585 57.6358 11.9376 60.7986 13.351L63.0395 14.3525C64.3202 14.926 64.3202 16.799 63.0395 17.3725L60.6675 18.4323C57.5839 19.81 55.1129 22.3292 53.7408 25.4921L52.9694 27.2655C52.4062 28.5644 50.6183 28.5644 50.0547 27.2655L49.2864 25.4921C47.9143 22.3287 45.4405 19.8102 42.3567 18.4323L39.9846 17.3725C38.704 16.7991 38.704 14.9259 39.9846 14.3525L42.2255 13.351C45.3884 11.9376 47.9047 9.32591 49.253 6.05525L50.0426 4.13793Z" fill="white"/>
</svg>
